HIERARCHY
ROOT hip
{
  OFFSET 0.00112043 5.09927 -9.65472
  CHANNELS 6 Xposition Yposition Zposition Zrotation Xrotation Yrotation
  JOINT abdomen
  {
    OFFSET 0 -1.186 -1.5018
    CHANNELS 3 Zrotation Xrotation Yrotation
    JOINT abdomen2
    {
      OFFSET 0 9.964 0.2134
      CHANNELS 3 Zrotation Xrotation Yrotation
      JOINT chest
      {
        OFFSET 0 13.134 -3.2573
        CHANNELS 3 Zrotation Xrotation Yrotation
        JOINT neck
        {
          OFFSET 0 20.686 -1.6905
          CHANNELS 3 Zrotation Xrotation Yrotation
          JOINT head
          {
            OFFSET 0 7.238 -0.1237
            CHANNELS 3 Zrotation Xrotation Yrotation
            End Site
            {
              OFFSET 0 0 0
            }
          }
        }
        JOINT lCollar
        {
          OFFSET 1.7069 20.075 5.0056
          CHANNELS 3 Zrotation Xrotation Yrotation
          JOINT lShldr
          {
            OFFSET 13.6458 -0.047 -4.849
            CHANNELS 3 Zrotation Xrotation Yrotation
            JOINT lForeArm
            {
              OFFSET 28.3255 -0.9759 2.2888
              CHANNELS 3 Zrotation Xrotation Yrotation
              JOINT lHand
              {
                OFFSET 22.1583 -0.53 10.8316
                CHANNELS 3 Zrotation Xrotation Yrotation
                JOINT lThumb1
                {
                  OFFSET 0.786 0.112 2.5817
                  CHANNELS 3 Zrotation Xrotation Yrotation
                  JOINT lThumb2
                  {
                    OFFSET 0.3601 -0.878 4.2331
                    CHANNELS 3 Zrotation Xrotation Yrotation
                    JOINT lThumb2_End
                    {
                      OFFSET 1.8127 -1.216 2.2227
                      CHANNELS 3 Zrotation Xrotation Yrotation
                      End Site
                      {
                        OFFSET 0.0181 -0.0122 0.0222
                      }
                    }
                  }
                }
                JOINT lCarpal1
                {
                  OFFSET 0.9571 1.114 1.7695
                  CHANNELS 3 Zrotation Xrotation Yrotation
                  JOINT lIndex1
                  {
                    OFFSET 4.1246 0.487 4.1451
                    CHANNELS 3 Zrotation Xrotation Yrotation
                    JOINT lIndex2
                    {
                      OFFSET 3.4052 -1.454 2.7682
                      CHANNELS 3 Zrotation Xrotation Yrotation
                      JOINT lIndex2_End
                      {
                        OFFSET 1.4531 -1.795 1.2713
                        CHANNELS 3 Zrotation Xrotation Yrotation
                        End Site
                        {
                          OFFSET 0.0145 -0.0179 0.0127
                        }
                      }
                    }
                  }
                  JOINT lMid1
                  {
                    OFFSET 5.6954 0.21 2.1184
                    CHANNELS 3 Zrotation Xrotation Yrotation
                    JOINT lMid2
                    {
                      OFFSET 3.9766 -1.54 2.3863
                      CHANNELS 3 Zrotation Xrotation Yrotation
                      JOINT lMid2_End
                      {
                        OFFSET 1.4042 -1.926 1.125
                        CHANNELS 3 Zrotation Xrotation Yrotation
                        End Site
                        {
                          OFFSET 0.014 -0.0193 0.0113
                        }
                      }
                    }
                  }
                }
                JOINT lCarpal2
                {
                  OFFSET 2.0956 0.66 -0.3894
                  CHANNELS 3 Zrotation Xrotation Yrotation
                  JOINT lRing1
                  {
                    OFFSET 5.0395 -0.09 2.4971
                    CHANNELS 3 Zrotation Xrotation Yrotation
                    JOINT lRing2
                    {
                      OFFSET 3.7921 -1.552 1.4806
                      CHANNELS 3 Zrotation Xrotation Yrotation
                      JOINT lRing2_End
                      {
                        OFFSET 1.4655 -1.808 0.9609
                        CHANNELS 3 Zrotation Xrotation Yrotation
                        End Site
                        {
                          OFFSET 0.0147 -0.0181 0.0096
                        }
                      }
                    }
                  }
                  JOINT lPinky1
                  {
                    OFFSET 4.9141 -1.269 0.3591
                    CHANNELS 3 Zrotation Xrotation Yrotation
                    JOINT lPinky2
                    {
                      OFFSET 3.1477 -1.685 0.8462
                      CHANNELS 3 Zrotation Xrotation Yrotation
                      JOINT lPinky2_End
                      {
                        OFFSET 0.8055 -1.585 0.7955
                        CHANNELS 3 Zrotation Xrotation Yrotation
                        End Site
                        {
                          OFFSET 0.0081 -0.0158 0.008
                        }
                      }
                    }
                  }
                }
              }
            }
          }
        }
        JOINT rCollar
        {
          OFFSET -1.7069 20.075 5.0056
          CHANNELS 3 Zrotation Xrotation Yrotation
          JOINT rShldr
          {
            OFFSET -13.6458 -0.047 -4.849
            CHANNELS 3 Zrotation Xrotation Yrotation
            JOINT rForeArm
            {
              OFFSET -28.3255 -0.9759 2.2888
              CHANNELS 3 Zrotation Xrotation Yrotation
              JOINT rHand
              {
                OFFSET -22.1583 -0.53 10.8316
                CHANNELS 3 Zrotation Xrotation Yrotation
                JOINT rThumb1
                {
                  OFFSET -0.786 0.112 2.5817
                  CHANNELS 3 Zrotation Xrotation Yrotation
                  JOINT rThumb2
                  {
                    OFFSET -0.3601 -0.878 4.2331
                    CHANNELS 3 Zrotation Xrotation Yrotation
                    JOINT rThumb2_End
                    {
                      OFFSET -1.8127 -1.216 2.2227
                      CHANNELS 3 Zrotation Xrotation Yrotation
                      End Site
                      {
                        OFFSET -0.0181 -0.0122 0.0222
                      }
                    }
                  }
                }
                JOINT rCarpal1
                {
                  OFFSET -0.9571 1.114 1.7695
                  CHANNELS 3 Zrotation Xrotation Yrotation
                  JOINT rIndex1
                  {
                    OFFSET -4.1246 0.487 4.1451
                    CHANNELS 3 Zrotation Xrotation Yrotation
                    JOINT rIndex2
                    {
                      OFFSET -3.4052 -1.454 2.7682
                      CHANNELS 3 Zrotation Xrotation Yrotation
                      JOINT rIndex2_End
                      {
                        OFFSET -1.4531 -1.795 1.2713
                        CHANNELS 3 Zrotation Xrotation Yrotation
                        End Site
                        {
                          OFFSET -0.0145 -0.018 0.0127
                        }
                      }
                    }
                  }
                  JOINT rMid1
                  {
                    OFFSET -5.6954 0.21 2.1184
                    CHANNELS 3 Zrotation Xrotation Yrotation
                    JOINT rMid2
                    {
                      OFFSET -3.9766 -1.54 2.3863
                      CHANNELS 3 Zrotation Xrotation Yrotation
                      JOINT rMid2_End
                      {
                        OFFSET -1.4042 -1.926 1.125
                        CHANNELS 3 Zrotation Xrotation Yrotation
                        End Site
                        {
                          OFFSET -0.014 -0.0193 0.0113
                        }
                      }
                    }
                  }
                }
                JOINT rCarpal2
                {
                  OFFSET -2.0956 0.66 -0.3894
                  CHANNELS 3 Zrotation Xrotation Yrotation
                  JOINT rRing1
                  {
                    OFFSET -5.0395 -0.09 2.4971
                    CHANNELS 3 Zrotation Xrotation Yrotation
                    JOINT rRing2
                    {
                      OFFSET -3.7921 -1.552 1.4806
                      CHANNELS 3 Zrotation Xrotation Yrotation
                      JOINT rRing2_End
                      {
                        OFFSET -1.4655 -1.808 0.9609
                        CHANNELS 3 Zrotation Xrotation Yrotation
                        End Site
                        {
                          OFFSET -0.0147 -0.0181 0.0096
                        }
                      }
                    }
                  }
                  JOINT rPinky1
                  {
                    OFFSET -4.9141 -1.269 0.3592
                    CHANNELS 3 Zrotation Xrotation Yrotation
                    JOINT rPinky2
                    {
                      OFFSET -3.1477 -1.685 0.8462
                      CHANNELS 3 Zrotation Xrotation Yrotation
                      JOINT rPinky2_End
                      {
                        OFFSET -0.8055 -1.585 0.7955
                        CHANNELS 3 Zrotation Xrotation Yrotation
                        End Site
                        {
                          OFFSET -0.0081 -0.0158 0.008
                        }
                      }
                    }
                  }
                }
              }
            }
          }
        }
      }
    }
  }
  JOINT lThigh
  {
    OFFSET 8.367 -8.2066 0.5982
    CHANNELS 3 Zrotation Xrotation Yrotation
    JOINT lShin
    {
      OFFSET 2.1923 -43.463 -0.4932
      CHANNELS 3 Zrotation Xrotation Yrotation
      JOINT lFoot
      {
        OFFSET 0.7333 -45.8593 -2.6451
        CHANNELS 3 Zrotation Xrotation Yrotation
        End Site
        {
          OFFSET 2.6618 -4.2699 12.3931
        }
      }
    }
  }
  JOINT rThigh
  {
    OFFSET -8.367 -8.2066 0.5982
    CHANNELS 3 Zrotation Xrotation Yrotation
    JOINT rShin
    {
      OFFSET -2.1923 -43.463 -0.4931
      CHANNELS 3 Zrotation Xrotation Yrotation
      JOINT rFoot
      {
        OFFSET -0.7333 -45.8593 -2.6451
        CHANNELS 3 Zrotation Xrotation Yrotation
        End Site
        {
          OFFSET -2.6618 -4.2699 12.3931
        }
      }
    }
  }
}
MOTION
Frames:	4
Frame Time:	0.0333333
0 91.7903 2.51682 0 0 -0 0 0 -0 0 0 -0 0 0 -0 0 0 -0 0 0 -0 0 0 -0 1.66051 0.0835086 5.75766 -0.0175111 0.895433 15.7816 7.95139e-016 -1.98785e-016 -0 5.46658e-016 -3.97569e-016 -0 5.96354e-016 0 -0 3.97569e-016 1.98785e-016 9.54166e-015 1.49089e-016 -3.97569e-016 -0 6.4605e-016 0 3.18055e-015 5.96354e-016 0 3.18055e-015 8.94531e-016 -1.98785e-016 6.36111e-015 6.4605e-016 0 3.18055e-015 5.96354e-016 0 3.18055e-015 8.94531e-016 -1.98785e-016 6.36111e-015 1.49089e-016 -3.97569e-016 -0 6.4605e-016 0 3.18055e-015 5.96354e-016 0 3.18055e-015 8.94531e-016 -1.98785e-016 6.36111e-015 6.4605e-016 0 3.18055e-015 5.96354e-016 0 3.18055e-015 8.94531e-016 -1.98785e-016 6.36111e-015 0 0 -0 -1.4496 0.0636048 -5.0245 -1.74811 1.20616 -16.8394 -1.19271e-015 1.98785e-016 -3.18055e-015 -3.97569e-016 1.98785e-016 -3.18055e-015 -2.98177e-016 1.98785e-016 -3.18055e-015 -2.98177e-016 3.97569e-016 -0 4.96962e-016 0 -6.36111e-015 -9.93923e-017 3.97569e-016 -0 -8.94531e-016 5.96354e-016 -0 -3.97569e-016 3.97569e-016 -0 -9.93923e-017 3.97569e-016 -0 -8.94531e-016 5.96354e-016 -0 -3.97569e-016 3.97569e-016 -0 4.96962e-016 0 -6.36111e-015 -9.93923e-017 3.97569e-016 -0 -8.94531e-016 5.96354e-016 -0 -3.97569e-016 3.97569e-016 -0 -9.93923e-017 3.97569e-016 -0 -8.94531e-016 5.96354e-016 -0 -3.97569e-016 3.97569e-016 -0 -4.66111 -0.998717 0.12318 0.00986924 1.54847 0.176523 4.65186 -0.572283 -0.254274 4.66111 -0.998765 -0.123176 -0.00986867 1.54869 -0.176537 -4.65186 -0.572453 0.25427 
1.91131 39.5822 21.9315 -0.000446941 -23.0014 179.999 0.0153994 4.38955 -0.0486557 0.0347038 8.7791 -0.0989364 0.0347038 8.7791 -0.0989364 2.08865e-007 -0.211108 -1.8482e-007 -0.0646943 -0.487852 -0.00027178 -33.0425 -14.1589 -1.67542 -22.5437 -4.17296 -32.3261 -37.4899 47.6757 -16.7373 53.9201 -23.6181 -20.9041 9.54713e-007 5.0494e-008 -1.94674e-006 -1.59028e-015 -5.96354e-015 -3.18055e-015 -9.54713e-007 -5.04941e-008 1.94674e-006 -3.18055e-015 -1.15295e-014 -3.18055e-015 9.54713e-007 5.04941e-008 -1.94674e-006 -1.59028e-015 -2.78299e-015 -6.36111e-015 -9.54713e-007 -5.04941e-008 1.94674e-006 9.54713e-007 5.04941e-008 -1.94674e-006 -1.59028e-015 -2.78299e-015 -6.36111e-015 -9.54713e-007 -5.04941e-008 1.94674e-006 -3.18055e-015 -1.15295e-014 -3.18055e-015 9.54713e-007 5.04941e-008 -1.94674e-006 -1.59028e-015 -2.78299e-015 -6.36111e-015 -9.54713e-007 -5.04941e-008 1.94674e-006 9.54713e-007 5.04941e-008 -1.94674e-006 -1.59028e-015 -2.78299e-015 -6.36111e-015 -9.54713e-007 -5.04941e-008 1.94674e-006 29.8979 -17.6543 -0.638922 23.1147 -4.57678 35.3307 38.8269 47.4598 24.6878 -29.6881 -54.3746 -13.5965 2.18663e-015 3.97569e-016 -0 2.38542e-015 1.19271e-015 -0 1.98785e-015 -3.97569e-016 -0 1.39149e-015 -3.97569e-016 -0 1.78906e-015 0 3.18055e-015 1.59028e-015 0 -0 1.59028e-015 7.95139e-016 -0 1.78906e-015 0 3.18055e-015 1.59028e-015 0 -0 1.59028e-015 7.95139e-016 -0 1.39149e-015 -3.97569e-016 -0 1.78906e-015 0 3.18055e-015 1.59028e-015 0 -0 1.59028e-015 7.95139e-016 -0 1.78906e-015 0 3.18055e-015 1.59028e-015 0 -0 1.59028e-015 7.95139e-016 -0 16.1466 -51.2236 27.4617 169.555 67.2769 -164.086 -21.4434 52.121 29.8666 -14.5824 -50.291 -30.672 -170.13 67.6813 164.814 19.5138 50.1524 -32.65 
1.91144 39.6746 21.8045 -0.000380118 -21.8901 179.999 0.0145219 4.26843 -0.0488107 0.0328394 8.53689 -0.0991243 0.0328394 8.53688 -0.0991243 -4.2498e-008 -0.420675 -3.38254e-007 -0.123803 -0.966115 -0.0221935 -32.4286 -12.0183 -2.35787 -22.5437 -4.17297 -32.3261 -36.8494 47.3472 -16.2307 53.9648 -25.2165 -19.9414 -3.18055e-015 6.36111e-015 -0 0 9.54166e-015 -0 1.59028e-015 3.97569e-015 -0 -4.77083e-015 -3.57812e-015 -0 -1.14762e-030 1.03368e-014 6.36111e-015 1.59028e-015 7.15625e-015 -0 1.59028e-015 5.1684e-015 -3.18055e-015 -1.14762e-030 1.03368e-014 6.36111e-015 1.59028e-015 7.15625e-015 -0 1.59028e-015 5.1684e-015 -3.18055e-015 -4.77083e-015 -3.57812e-015 -0 -1.14762e-030 1.03368e-014 6.36111e-015 1.59028e-015 7.15625e-015 -0 1.59028e-015 5.1684e-015 -3.18055e-015 -1.14762e-030 1.03368e-014 6.36111e-015 1.59028e-015 7.15625e-015 -0 1.59028e-015 5.1684e-015 -3.18055e-015 29.4553 -15.6211 -0.101917 23.1147 -4.57678 35.3307 37.9899 46.8843 24.1058 -28.8958 -55.9765 -12.9878 -7.95139e-016 -1.98785e-015 6.36111e-015 -5.96354e-016 0 3.18055e-015 -5.96354e-016 1.59028e-015 6.36111e-015 -7.95139e-016 -1.59028e-015 6.36111e-015 -7.95139e-016 0 6.36111e-015 -3.97569e-016 0 6.36111e-015 -4.41391e-032 -7.95139e-016 -3.18055e-015 -7.95139e-016 0 6.36111e-015 -3.97569e-016 0 6.36111e-015 -4.41391e-032 -7.95139e-016 -3.18055e-015 -7.95139e-016 -1.59028e-015 6.36111e-015 -7.95139e-016 0 6.36111e-015 -3.97569e-016 0 6.36111e-015 -4.41391e-032 -7.95139e-016 -3.18055e-015 -7.95139e-016 0 6.36111e-015 -3.97569e-016 0 6.36111e-015 -4.41391e-032 -7.95139e-016 -3.18055e-015 15.5332 -49.7963 26.6996 169.458 67.5891 -164.017 -21.4098 52.0858 29.8206 -13.9399 -48.8804 -29.882 -170.036 67.9936 164.747 19.4834 50.1148 -32.6066 
1.91152 39.765 21.6783 -0.000359033 -20.7822 179.999 0.0136732 4.14695 -0.0488723 0.0310264 8.2939 -0.0991311 0.0310264 8.2939 -0.0991311 1.13153e-006 -0.629938 2.4609e-007 -0.183188 -1.44504 -0.0446447 -31.7887 -9.87003 -3.0637 -22.5437 -4.17296 -32.3261 -36.2075 47.0221 -15.7211 54.0405 -26.8199 -18.9604 -9.54166e-015 -8.74653e-015 -3.18055e-015 -6.36111e-015 -4.77083e-015 3.18055e-015 -6.36111e-015 -3.18055e-015 -0 -6.36111e-015 7.95139e-016 -6.36111e-015 -9.54166e-015 7.95139e-015 9.54166e-015 -4.77083e-015 -6.36111e-015 -0 -3.18055e-015 -7.95139e-015 -0 -9.54166e-015 7.95139e-015 9.54166e-015 -4.77083e-015 -6.36111e-015 -0 -3.18055e-015 -7.95139e-015 -0 -6.36111e-015 7.95139e-016 -6.36111e-015 -9.54166e-015 7.95139e-015 9.54166e-015 -4.77083e-015 -6.36111e-015 -0 -3.18055e-015 -7.95139e-015 -0 -9.54166e-015 7.95139e-015 9.54166e-015 -4.77083e-015 -6.36111e-015 -0 -3.18055e-015 -7.95139e-015 -0 28.9943 -13.5799 0.449619 23.1147 -4.57677 35.3307 37.1518 46.3136 23.5168 -28.0343 -57.5787 -12.3089 1.98785e-016 7.95139e-016 3.18055e-015 5.96354e-016 2.78299e-015 -0 9.93923e-016 1.19271e-015 -3.18055e-015 1.98785e-016 3.97569e-016 3.18055e-015 3.97569e-016 1.19271e-015 1.27222e-014 1.98785e-016 0 6.36111e-015 1.19271e-015 1.59028e-015 6.36111e-015 3.97569e-016 1.19271e-015 1.27222e-014 1.98785e-016 0 6.36111e-015 1.19271e-015 1.59028e-015 6.36111e-015 1.98785e-016 3.97569e-016 3.18055e-015 3.97569e-016 1.19271e-015 1.27222e-014 1.98785e-016 0 6.36111e-015 1.19271e-015 1.59028e-015 6.36111e-015 3.97569e-016 1.19271e-015 1.27222e-014 1.98785e-016 0 6.36111e-015 1.19271e-015 1.59028e-015 6.36111e-015 14.9631 -48.3604 25.9799 169.358 67.9015 -163.945 -21.3764 52.0505 29.775 -13.3416 -47.4602 -29.1353 -169.938 68.3065 164.676 19.4532 50.0772 -32.5636 
